<?xml version="1.0" standalone="no"?>
<svg id="Vector" width="122" height="235" viewBox="0 0 122 235" fill="none" xmlns="http://www.w3.org/2000/svg" style="max-width: 100%; max-height: 100%;">
<path d="M91.3789 0.5L86.2449 31.4249C84.2972 30.7447 82.2933 30.1566 80.2333 29.6603L85.0744 0.5H91.3789ZM80.0691 30.6494C82.1309 31.1486 84.134 31.7409 86.0786 32.4263L83.1328 50.1704C81.2501 49.275 79.2743 48.5167 77.2061 47.8952L80.0691 30.6494ZM84.07 50.6313L87.0348 32.7726C88.4114 33.2846 89.758 33.8442 91.0747 34.4512L91.0772 34.4523C99.4671 38.2659 106.097 43.4877 110.984 50.1122L110.986 50.1143C115.82 56.5958 118.417 63.932 118.776 72.1364H99.964C98.8701 63.8531 94.7981 57.3882 87.7687 52.7752C86.5801 51.9952 85.3472 51.2806 84.07 50.6313ZM77.0409 48.89C79.1132 49.5194 81.0869 50.2888 82.9623 51.1978L73.8142 106.301L67.7794 104.677L77.0409 48.89ZM67.6149 105.668L73.6496 107.293L70.6737 125.218C69.9066 124.992 69.1325 124.77 68.3512 124.553C68.3507 124.553 68.3502 124.552 68.3497 124.552L64.655 123.497L67.6149 105.668ZM68.0821 125.516C68.8989 125.743 69.7077 125.975 70.5087 126.212L61.0492 183.192C60.9118 183.193 60.7742 183.193 60.6364 183.193C58.6472 183.193 56.6979 183.105 54.7882 182.93L64.4902 124.49L68.0785 125.515L68.0821 125.516ZM61.8985 184.182C69.2489 184.052 75.8961 182.783 81.8334 180.367L81.8369 180.365C88.1093 177.756 93.0981 174.139 96.7834 169.504L96.7852 169.502C100.483 164.796 102.33 159.303 102.33 153.045C102.33 147.345 100.734 142.66 97.5069 139.037C94.3196 135.458 90.1362 132.562 84.9731 130.342C80.8001 128.547 76.3554 126.935 71.6395 125.507L74.6203 107.552C78.8381 108.686 83.5097 110.22 88.6359 112.155L88.6375 112.156C94.0324 114.172 99.1844 116.925 104.094 120.416L104.099 120.42C109.036 123.837 113.107 128.232 116.312 133.611C119.496 138.954 121.102 145.534 121.102 153.375C121.102 162.4 118.739 170.543 114.015 177.819L114.014 177.821C109.348 185.091 102.505 190.882 93.4584 195.188L93.4574 195.188C84.4789 199.487 73.5447 201.648 60.6364 201.648C60.0878 201.648 59.5427 201.644 59.0009 201.636L61.8985 184.182ZM60.6364 184.193C60.7187 184.193 60.8009 184.193 60.883 184.193L57.9905 201.616C55.8545 201.564 53.7722 201.448 51.7437 201.269L54.624 183.919C56.5882 184.102 58.5924 184.193 60.6364 184.193ZM51.5794 202.258C53.6097 202.439 55.6916 202.557 57.8252 202.612L52.6671 233.682H46.3626L51.5794 202.258ZM53.627 183.818L50.7456 201.175C42.8125 200.384 35.7152 198.604 29.4489 195.841C20.7335 191.973 13.8874 186.589 8.89223 179.695C4.0488 172.935 1.26223 165.102 0.53955 156.182H20.635C21.2539 162.442 23.4177 167.668 27.1444 171.833L27.1491 171.839C30.9992 176.023 35.8492 179.142 41.6861 181.199L41.6915 181.201C45.4877 182.49 49.4665 183.362 53.627 183.818ZM66.6445 105.407L63.6872 123.22L47.5927 118.622C34.4625 114.847 24.1025 109.468 16.4851 102.503C8.90943 95.5768 5.11364 86.516 5.11364 75.2727C5.11364 65.9216 7.63966 57.7881 12.6801 50.8507C17.7874 43.842 24.6364 38.4026 33.2419 34.5356L33.2432 34.535C41.9038 30.6132 51.5813 28.6477 62.2841 28.6477C68.2594 28.6477 73.8619 29.2396 79.0933 30.4212L76.2387 47.6164C71.7837 46.386 66.9113 45.7727 61.625 45.7727C54.1021 45.7727 47.4962 46.9896 41.819 49.4386L41.8174 49.4393C36.2019 51.8857 31.7883 55.2594 28.5981 59.569L28.5956 59.5724C25.4558 63.8897 23.8864 68.7992 23.8864 74.2841C23.8864 78.8699 24.978 82.8416 27.1823 86.1763L27.1822 86.1763L27.1878 86.1844C29.4248 89.4281 32.2762 92.1386 35.7366 94.3153L35.7416 94.3183C39.1749 96.4226 42.7746 98.1672 46.5405 99.5517L46.5467 99.5539C50.2908 100.875 53.7362 101.951 56.882 102.778C56.8827 102.779 56.8834 102.779 56.8841 102.779L66.6445 105.407Z" fill="white" stroke="#330099" stroke-linejoin="bevel" stroke-dasharray="0,0,0,1464.8487548828125"><animate attributeType="XML" attributeName="stroke-dasharray" repeatCount="1" dur="2.5s" values="0,0,0,1464.8487548828125; 
          0,732.4243774414062,732.4243774414062,0; 
          1464.8487548828125,0,0,0" keyTimes="0; 0.5; 1" fill="freeze"></animate></path>
<setting>{"type":"direct","speed":20,"random":1,"shift":1,"size":1,"rupture":50}</setting></svg>